<?xml version="1.0" encoding="utf-8"?>
<!-- Generator: Adobe Illustrator 27.5.0, SVG Export Plug-In . SVG Version: 6.00 Build 0)  -->
<svg version="1.1" xmlns="http://www.w3.org/2000/svg" xmlns:xlink="http://www.w3.org/1999/xlink" x="0px" y="0px"
	 viewBox="0 0 708.7 204.9" enable-background="new 0 0 708.7 204.9" xml:space="preserve">
<g id="Light" display="none">
	<g id="Vertical" display="inline">
		<g id="Texto_copia">
			<g>
				<path fill="#575756" d="M235.9,260.6c0-4.7-1.7-8.4-5-10.9c-3.3-2.5-9.4-5.2-18.1-8c-8.7-2.8-15.6-5.6-20.7-8.3
					c-13.8-7.5-20.7-17.5-20.7-30.2c0-6.6,1.9-12.5,5.6-17.6c3.7-5.2,9-9.2,16-12.1c6.9-2.9,14.7-4.4,23.4-4.4
					c8.7,0,16.5,1.6,23.3,4.7c6.8,3.2,12.1,7.6,15.9,13.3c3.8,5.7,5.6,12.3,5.6,19.6H236c0-5.6-1.8-9.9-5.3-13
					c-3.5-3.1-8.4-4.6-14.8-4.6c-6.1,0-10.9,1.3-14.3,3.9c-3.4,2.6-5.1,6-5.1,10.2c0,4,2,7.3,6,10c4,2.7,9.9,5.2,17.6,7.5
					c14.3,4.3,24.7,9.6,31.2,16c6.5,6.4,9.8,14.3,9.8,23.8c0,10.5-4,18.8-12,24.8c-8,6-18.7,9-32.2,9c-9.4,0-17.9-1.7-25.6-5.1
					c-7.7-3.4-13.6-8.1-17.6-14.1c-4-6-6.1-12.9-6.1-20.7h25.2c0,13.4,8,20.2,24.1,20.2c6,0,10.6-1.2,14-3.6
					C234.3,268.4,235.9,265,235.9,260.6z"/>
				<path fill="#575756" d="M304.8,292.6h-25.1V170.8h25.1V292.6z"/>
				<path fill="#575756" d="M373.1,248l-9.1-20l-10.9,64.6H328V170.8h45.3c14.4,0,25.5,3.2,33.3,9.6c7.8,6.4,11.7,15.5,11.7,27.2
					c0,8.3-1.8,15.2-5.4,20.8c-3.6,5.5-9,10-16.4,13.3l26.4,49.8v1.2H396L373.1,248z M353.1,227.7h20.2c6.3,0,11.2-1.6,14.6-4.8
					c3.5-3.2,5.2-7.6,5.2-13.3c0-5.7-1.6-10.3-4.9-13.6c-3.3-3.3-8.3-4.9-15-4.9h-20.2V227.7z"/>
				<path fill="#575756" d="M484,201l-21.8,66.5l-8.4,25.1h-26.7l45.3-121.8h23.3l45.6,121.8h-26.7L484,201z"/>
			</g>
			<g id="Capa_7_copia">
				<polygon fill="#7D99C7" points="364,228 353,228 353,293 				"/>
				<polygon fill="#7D99C7" points="468.2,249.1 500,249 454,293 				"/>
				<polygon fill="#7D99C7" points="305,171 314,171 305,293 				"/>
			</g>
		</g>
		<g id="Logo-S_copia">
			<polygon fill="#3C558D" points="273.5,-106.5 168,23.6 232.5,14 			"/>
			<polygon fill="#7D99C7" points="168,23.6 232.5,14 265.9,143 			"/>
			<polygon fill="#D5DDEC" points="232.5,14 273.5,-106.5 248,73.9 			"/>
			<polygon fill="#3C558D" points="248,73.7 384.2,31.9 265.9,143 			"/>
			<polygon fill="#D5DDEC" points="384.2,31.9 265.9,143 350.7,106 			"/>
			<polygon fill="#3C558D" points="362.7,16.4 459.4,-104.2 386.6,-61.2 			"/>
			<polygon fill="#3C558D" points="459.4,-104.2 558.6,9.2 500,23.6 			"/>
			<polygon fill="#D5DDEC" points="500,23.6 475.9,143 558.6,9.2 			"/>
			<polygon fill="#7D99C7" points="500,23.6 475.9,143 480.8,-36.9 			"/>
			<polygon fill="#7D99C7" points="401,-31.4 362.7,16.4 338.8,45.8 384.2,31.9 			"/>
			<polygon fill="#D5DDEC" points="480.9,-37.4 459.4,-104.2 400.9,-31.4 392.3,1.5 			"/>
		</g>
	</g>
	<g id="Horizontal" display="inline">
		<g id="Texto">
			<g>
				<path fill="#575756" d="M382.9,153.6c0-4.7-1.7-8.4-5-10.9c-3.3-2.5-9.4-5.2-18.1-8c-8.7-2.8-15.6-5.6-20.7-8.3
					c-13.8-7.5-20.7-17.5-20.7-30.2c0-6.6,1.9-12.5,5.6-17.6c3.7-5.2,9-9.2,16-12.1c6.9-2.9,14.7-4.4,23.4-4.4
					c8.7,0,16.5,1.6,23.3,4.7c6.8,3.2,12.1,7.6,15.9,13.3c3.8,5.7,5.6,12.3,5.6,19.6H383c0-5.6-1.8-9.9-5.3-13
					c-3.5-3.1-8.4-4.6-14.8-4.6c-6.1,0-10.9,1.3-14.3,3.9c-3.4,2.6-5.1,6-5.1,10.2c0,4,2,7.3,6,10c4,2.7,9.9,5.2,17.6,7.5
					c14.3,4.3,24.7,9.6,31.2,16c6.5,6.4,9.8,14.3,9.8,23.8c0,10.5-4,18.8-12,24.8c-8,6-18.7,9-32.2,9c-9.4,0-17.9-1.7-25.6-5.1
					c-7.7-3.4-13.6-8.1-17.6-14.1c-4-6-6.1-12.9-6.1-20.7h25.2c0,13.4,8,20.2,24.1,20.2c6,0,10.6-1.2,14-3.6
					C381.3,161.4,382.9,158,382.9,153.6z"/>
				<path fill="#575756" d="M451.8,185.6h-25.1V63.8h25.1V185.6z"/>
				<path fill="#575756" d="M520.1,141l-9.1-20l-10.9,64.6H475V63.8h45.3c14.4,0,25.5,3.2,33.3,9.6c7.8,6.4,11.7,15.5,11.7,27.2
					c0,8.3-1.8,15.2-5.4,20.8c-3.6,5.5-9,10-16.4,13.3l26.4,49.8v1.2H543L520.1,141z M500.1,120.7h20.2c6.3,0,11.2-1.6,14.6-4.8
					c3.5-3.2,5.2-7.6,5.2-13.3c0-5.7-1.6-10.3-4.9-13.6c-3.3-3.3-8.3-4.9-15-4.9h-20.2V120.7z"/>
				<path fill="#575756" d="M631,94l-21.8,66.5l-8.4,25.1h-26.7l45.3-121.8h23.3l45.6,121.8h-26.7L631,94z"/>
			</g>
			<g id="Capa_7">
				<polygon fill="#7D99C7" points="511,121 500,121 500,186 				"/>
				<polygon fill="#7D99C7" points="615.2,142.1 647,142 601,186 				"/>
				<polygon fill="#7D99C7" points="452,64 461,64 452,186 				"/>
			</g>
		</g>
		<g id="Logo-S">
			<polygon fill="#3C558D" points="102,15 28,106.2 73.2,99.5 			"/>
			<polygon fill="#7D99C7" points="28,106.2 73.2,99.5 96.7,190 			"/>
			<polygon fill="#D5DDEC" points="73.2,99.5 102,15 84.2,141.6 			"/>
			<polygon fill="#3C558D" points="84.1,141.4 179.7,112.1 96.7,190 			"/>
			<polygon fill="#D5DDEC" points="179.7,112.1 96.7,190 156.2,164 			"/>
			<polygon fill="#3C558D" points="164.6,101.2 232.5,16.6 181.3,46.7 			"/>
			<polygon fill="#3C558D" points="232.5,16.6 302,96.2 260.9,106.2 			"/>
			<polygon fill="#D5DDEC" points="260.9,106.2 244,190 302,96.2 			"/>
			<polygon fill="#7D99C7" points="260.9,106.2 244,190 247.5,63.8 			"/>
			<polygon fill="#7D99C7" points="191.5,67.7 164.6,101.2 147.8,121.8 179.7,112.1 			"/>
			<polygon fill="#D5DDEC" points="247.5,63.5 232.5,16.6 191.4,67.7 185.3,90.7 			"/>
		</g>
	</g>
</g>
<g id="DARK">
	<g id="Horizontal_copia">
		<g id="Texto_copia_2">
			<rect x="-54" y="-163" display="none" fill="#18162F" width="826" height="510"/>
			<g>
				<path fill="#D5DDEC" d="M393.9,139.6c0-4.7-1.7-8.4-5-10.9c-3.3-2.5-9.4-5.2-18.1-8c-8.7-2.8-15.6-5.6-20.7-8.3
					c-13.8-7.5-20.7-17.5-20.7-30.2c0-6.6,1.9-12.5,5.6-17.6c3.7-5.2,9-9.2,16-12.1c6.9-2.9,14.7-4.4,23.4-4.4
					c8.7,0,16.5,1.6,23.3,4.7c6.8,3.2,12.1,7.6,15.9,13.3c3.8,5.7,5.6,12.3,5.6,19.6H394c0-5.6-1.8-9.9-5.3-13
					c-3.5-3.1-8.4-4.6-14.8-4.6c-6.1,0-10.9,1.3-14.3,3.9c-3.4,2.6-5.1,6-5.1,10.2c0,4,2,7.3,6,10c4,2.7,9.9,5.2,17.6,7.5
					c14.3,4.3,24.7,9.6,31.2,16c6.5,6.4,9.8,14.3,9.8,23.8c0,10.5-4,18.8-12,24.8c-8,6-18.7,9-32.2,9c-9.4,0-17.9-1.7-25.6-5.1
					c-7.7-3.4-13.6-8.1-17.6-14.1c-4-6-6.1-12.9-6.1-20.7h25.2c0,13.4,8,20.2,24.1,20.2c6,0,10.6-1.2,14-3.6
					C392.3,147.4,393.9,144,393.9,139.6z"/>
				<path fill="#D5DDEC" d="M462.8,171.6h-25.1V49.8h25.1V171.6z"/>
				<path fill="#D5DDEC" d="M531.1,127l-9.1-20l-10.9,64.6H486V49.8h45.3c14.4,0,25.5,3.2,33.3,9.6c7.8,6.4,11.7,15.5,11.7,27.2
					c0,8.3-1.8,15.2-5.4,20.8c-3.6,5.5-9,10-16.4,13.3l26.4,49.8v1.2H554L531.1,127z M511.1,106.7h20.2c6.3,0,11.2-1.6,14.6-4.8
					c3.5-3.2,5.2-7.6,5.2-13.3c0-5.7-1.6-10.3-4.9-13.6c-3.3-3.3-8.3-4.9-15-4.9h-20.2V106.7z"/>
				<path fill="#D5DDEC" d="M642,80l-21.8,66.5l-8.4,25.1h-26.7l45.3-121.8h23.3l45.6,121.8h-26.7L642,80z"/>
			</g>
			<g id="Capa_7_copia_2">
				<polygon fill="#7D99C7" points="522,107 511,107 511,172 				"/>
				<polygon fill="#7D99C7" points="626.2,128.1 658,128 612,172 				"/>
				<polygon fill="#7D99C7" points="463,50 472,50 463,172 				"/>
			</g>
		</g>
		<g id="Logo-S_copia_2">
			<polygon fill="#3C558D" points="102,15 28,106.2 73.2,99.5 			"/>
			<polygon fill="#7D99C7" points="28,106.2 73.2,99.5 96.7,190 			"/>
			<polygon fill="#D5DDEC" points="73.2,99.5 102,15 84.2,141.6 			"/>
			<polygon fill="#3C558D" points="84.1,141.4 179.7,112.1 96.7,190 			"/>
			<polygon fill="#D5DDEC" points="179.7,112.1 96.7,190 156.2,164 			"/>
			<polygon fill="#3C558D" points="164.6,101.2 232.5,16.6 181.3,46.7 			"/>
			<polygon fill="#3C558D" points="232.5,16.6 302,96.2 260.9,106.2 			"/>
			<polygon fill="#D5DDEC" points="260.9,106.2 244,190 302,96.2 			"/>
			<polygon fill="#7D99C7" points="260.9,106.2 244,190 247.5,63.8 			"/>
			<polygon fill="#7D99C7" points="191.5,67.7 164.6,101.2 147.8,121.8 179.7,112.1 			"/>
			<polygon fill="#D5DDEC" points="247.5,63.5 232.5,16.6 191.4,67.7 185.3,90.7 			"/>
		</g>
	</g>
</g>
<g id="TRAZADO" display="none">
</g>
</svg>
