<?xml 
version="1.0" 
encoding="UTF-8"?>
<svg id="DARK" xmlns="http://www.w3.org/2000/svg" viewBox="0 0 1252 649">
  <defs>
    <style>
      .cls-1 {
        fill: #d5ddec;
      }

      .cls-2 {
        fill: #3c558d;
      }

      .cls-3 {
        fill: #7d99c7;
      }
    </style>
  </defs>
  <g id="Horizontal_copia">
    <g id="Texto_copia_2">
      <path class="cls-1"
        d="m677.93749,338.6123c0-4.73926-1.67382-8.37891-5.01952-10.91699-3.34766-2.53711-9.37109-5.21484-18.07031-8.03125-8.70117-2.81543-15.58984-5.59082-20.66406-8.32422-13.83252-7.47363-20.74756-17.54004-20.74756-30.20117,0-6.58008,1.85352-12.45068,5.56348-17.60986,3.7085-5.1582,9.03516-9.18848,15.97852-12.08887,6.94385-2.89941,14.7373-4.3501,23.3833-4.3501,8.69922,0,16.45116,1.57617,23.25586,4.72656,6.80469,3.15137,12.08984,7.6001,15.85352,13.34375,3.76562,5.74512,5.64844,12.27051,5.64844,19.57617h-25.09766c0-5.57617-1.75781-9.91357-5.27148-13.00928-3.51367-3.09521-8.44922-4.64307-14.80664-4.64307-6.13672,0-10.90527,1.29688-14.30664,3.89014-3.40234,2.59375-5.10303,6.01025-5.10303,10.24854,0,3.96094,1.99365,7.27832,5.98145,9.95508,3.9873,2.67773,9.85791,5.1875,17.60986,7.5293,14.27734,4.2959,24.67969,9.62109,31.20508,15.97949,6.52539,6.35742,9.78906,14.27832,9.78906,23.75879,0,10.54102-3.98828,18.81055-11.96484,24.80469-7.97461,5.99609-18.71094,8.99316-32.20703,8.99316-9.37061,0-17.90381-1.71484-25.60059-5.14453-7.69629-3.43066-13.56689-8.12793-17.60986-14.09668-4.04443-5.9668-6.06543-12.88379-6.06543-20.74707h25.18115c0,13.44141,8.03125,20.16113,24.09473,20.16113,5.9668,0,10.62305-1.21289,13.9707-3.63867,3.3457-2.42676,5.01952-5.81445,5.01952-10.16504Z" />
      <polygon class="cls-3" points="762 249 771 249 762 371 762 249" />
      <path class="cls-1" d="m761.78809,370.57031h-25.09766v-121.80762h25.09766v121.80762Z" />
      <path class="cls-1"
        d="m845.1377,325.98047l-9.1377-19.98047-10.85645,64.57031h-25.09766v-121.80762h45.25879c14.38965,0,25.4873,3.20801,33.29688,9.62109,7.80762,6.41406,11.71191,15.47656,11.71191,27.18945,0,8.31055-1.79883,15.24023-5.39551,20.78906-3.59766,5.5498-9.0498,9.96973-16.35548,13.25977l26.35255,49.77734v1.1709h-26.93848l-22.83887-44.58984Zm-19.99414-20.3291h20.24512c6.30176,0,11.18164-1.60254,14.64062-4.81055,3.45703-3.20703,5.18652-7.62598,5.18652-13.25977,0-5.74414-1.63086-10.26172-4.89355-13.55322-3.2627-3.29004-8.26953-4.93604-15.01758-4.93604h-20.16113v36.55957Z" />
      <polygon class="cls-3" points="836 306 825 306 825 371 836 306" />
      <path class="cls-1"
        d="m971,279l-21.84961,66.47266-8.36621,25.09766h-26.68652l45.34277-121.80762h23.25684l45.59473,121.80762h-26.6875l-30.60449-91.57031Z" />
      <polygon class="cls-3" points="955.19724 327.07645 987.04249 327 941 371 955.19724 327.07645" />
    </g>
    <g id="Logo-S_copia_2">
      <polygon class="cls-2" points="335 214 261 305.20795 306.24771 298.50459 335 214" />
      <polygon class="cls-3" points="261 305.20795 306.24771 298.50459 329.70948 389 261 305.20795" />
      <polygon class="cls-1" points="306.24771 298.50459 335 214 317.15062 340.55868 306.24771 298.50459" />
      <polygon class="cls-2" points="317.14067 340.40061 412.66361 311.07339 329.70948 389 317.14067 340.40061" />
      <polygon class="cls-1" points="412.66361 311.07339 329.70948 389 389.20183 363.02446 412.66361 311.07339" />
      <polygon class="cls-2" points="397.58104 300.18043 465.4526 215.55046 414.33945 245.7156 397.58104 300.18043" />
      <polygon class="cls-2" points="465.4526 215.55046 535 295.15291 493.9419 305.20795 465.4526 215.55046" />
      <polygon class="cls-1" points="493.9419 305.20795 477 389 535 295.15291 493.9419 305.20795" />
      <polygon class="cls-3" points="493.9419 305.20795 477 389 480.4647 262.79444 493.9419 305.20795" />
      <polygon class="cls-3"
        points="424.45918 266.66571 397.58104 300.18043 380.84462 320.84238 412.66361 311.07339 424.45918 266.66571" />
      <polygon class="cls-1"
        points="480.53517 262.47401 465.4526 215.55046 424.3945 266.66361 418.33328 289.72836 480.53517 262.47401" />
    </g>
  </g>
</svg>