<?xml version="1.0" encoding="UTF-8"?><svg id="Capa_1" xmlns="http://www.w3.org/2000/svg" viewBox="0 0 562.13999 455.64"><defs><style>.cls-1{fill:#9a9a9a;}.cls-1,.cls-2{fill-rule:evenodd;}.cls-2{fill:#dbdbdb;}</style></defs><g id="Entorno"><path class="cls-1" d="m455.46,111.77997l-.06003-1.56h-.59998l-.54001.18005-.60001-.06h-.84l-.66-.36005-.29999-.23999-.36002-.12-.35999-.17999-.36002-.23999-1.01999.12-2.34-.17999-.36002.12-.47998.29999-.84.35999-.54001.42004-.30002.35999-.72.17999-2.21997.17999-.48001.12-.30002.17999-.53998.78003-.12.59998.17999.41998v.30005l-.17999.35999-.96002-.06-.23999-.23999-.35999-.12-1.02002.06-.84.06-.17999.41998-.60001.23999-.66-.12-.54001-.29999-.59998-.29999-.48001-.42004-.48001-.35999-.84-.53998-.47998-.60004-.96002-.59998-.66-.23999c-4.53598-.86603-4.42499-.737-7.13998,2.39996l-1.08002.48004-.29999.12-1.13998-.72003-.30002-.53998-.54001-.96002-.35999-.59998-.84-.60004-.95999-.12-.60001-.71997-1.08002-.84003-.72-.65997-1.85999-.47998-.48001.29999-.66-.12-1.19998.77997-1.56.60004-1.02002.23999-1.31998.35999-2.22-.06-.60001-.47998-.30002-1.08002.30002-.53998.35999-1.14001-.12-.47998-.29999-.36005v-.71997l-.12-.48004-.30002-1.43994-.06-.66003-.23999-.71997-1.20001-1.38-.47998-.30005-.54001-.29999-2.82001-.35999-.72-.12-1.01999-.23999-.42001-.29999-1.01999-.96002-.72-.59998-2.52002-.84003h-.95999l-.95999-.17999-.89999-.17999-.78-.17999-1.02002-.36005-1.73999-.95996h-.41998l-.84003-.17999-.84.53998-.66.35999-.35999.48004-.23999,1.67999v.59998l.17999,1.08002-.36002.71997-.47998.54004-.60001.47998-1.44.17999-1.56-.41998-1.86002-.54004-.65997.48004-.36002-.06-.60001-.78003-.35999-.41998-.78.12-.54001.65997c-1.57901,1.83002-2.733.28705-4.13998-.47998l-1.62003-.06-1.91998.41998-1.14001.36005-1.07999.17999-1.32001-.48004-1.67999-1.01996-.36002-.54004-.23999-.77997.12-.72003-.95999-.47998-.12.06-1.20001.17999-.41998-.29999-1.02002-.59998-1.01999-.42004-1.01999-.23999h-.30002l-1.44.35999-.35999.48004-.30002.35999-.41998.12-.84.06-.54001-.23999-.78-.53998-.42001.17999-.23999.35999-.42001.47998-.89999-.35999-.12-.17999-.23999-.66003-2.34-1.56-.18002-.23999-1.37997-1.14001-.66-1.07996-.30002-.66003-.41998-.29999-1.08002-.41998-.89999.17999-.78.29999-1.13998-.47998-.84003-.23999-.29999-.06-1.44-.48004-.41998-.12-.60001-.41998-.78-.41998-.54001-.23999-.60001-.18005-1.32001-.47998-1.44-.29999-1.07999-.60004-1.07999-.41998-.84-.53998-.18002-.17999.06-.54004.24002-.06.53998-.47998-.29999-.65997-.35999-.06-.78-.12006-.48001.24005-.23999.77997-.18002.84003-.53998.59998-.30002,1.08002v.35999l-1.07999-1.08002-.36002-.47998-.66-.17999-.47998-.78003v-.53998l.12-.71997.54001-.48004.89999-.41998.23999-.29999v-1.02002l.24002-.65997.17999-.54004-.17999-1.20001-.24002-.65997-.84-.78003-.41998-.23999-.72-.41998-1.02002-.06-.89999.06-1.01999.53998-.72.72003-.54001.06-.54001-.66003-.60001-.95996-1.19998-.90002-.06-.47998-1.26001-1.73999-.12-.29999-.89999-.42004-.42001-.77997-1.13998.53998-.78.47998-.48001.24005-.60001.41998-.12.53998.23999.84003-.59998-.17999-.48001-.42004-.89999.18005-.18002.12-.78.53998-1.31998.29999-.30002.06-.53998.35999-.18002.60004-1.85999-.17999-.48001-.06-2.22-1.02002-.41998.29999-.78.29999c-2.19.08704-4.23401-.992-5.88-2.33997l-.96002-.47998-.41998-.12006-1.20001-.41998-.41998-.29999-.72-.41998-1.62-.23999-.78-.12006-.30002-.35999-.17999-.29999-2.16-.59998-.48001.41998-.59998.29999-1.44-.23999-1.20001.17999-.48001.35999-1.79999.90002-.29999.17999-.60001.53998v1.38l.06.48004-.12.35999-.84-.29999-.48001-.30005-.42001-.17999-.47998-.12-.66.12-.23999-.35999-1.02002-.59998-.60001-.30005-1.19998-.41998-.72-.23999-1.08002-.47998-.41998-.12-1.08002-.12-1.91998-.36005-.17999-.06-.90002-.06-.23999.17999h-.29999l-.66-.41998-.30002-.53998.18002-.23999.53998-.24005.30002.36005.35999.23999.30002-.12.23999-.29999.23999-.24005-.06-.29999-.23999-.17999c-1.45499-.18097-1.94901.026-2.94-1.32001l-.95999-.12-.89999.12-.72.23999-2.22.48004-.72.06-.60001.47998-.42001.23999-.78.47998-.23999.60004-.23999.12-.36002-.35999.06-.29999.24002-.54004.35999-.23999.54001-.29999-.17999-.23999-.30002-.30005h-.48001c-3.97998-.521-3.125,1.755-6.29999,1.92004l-.48001.23999-.72.17999-1.91998.71997-.66.42004-.42001.17999h-2.34l-1.13998.12-.78-.06-1.92001.12h-.89999l-.95999-.06-1.14001.06-.72-.23999-.78-.17999h-1.5l-.89999-.06-1.26001-.12-3.06-.36005-.78-.23999-.89999-.47998-.42-.35999-1.98-.06-2.75999-.36005-.96001-.23999-1.25999-.77997-1.2-.30005-.84001-.17999-1.07999-.17999-1.32001-.35999-.89999-.41998-.48001-.42004-.36-.17999-.95999-.12h-.12l-1.26001.60004-.53999.17999-.48001.29999-.06-.12.60001-.84003v-.59998l-.18001-.17999-.42-.23999-.89999-.06-.96001.12h-2.03999l-1.5.06c-3.14799.35297-3.60399-1.86902-5.09999-4.02002l-.42001-.29999h-1.38l-.35999.53998-.72.54004-.30002.29999-.12.59998-.17999.60004-.66.35999-1.01999.17999-1.32001-.06-.72.17999-.29999.23999-1.56.23999-2.10001-.06-.89999-.41998-.36002-.23999-.29999-.23999-.54001.17999-.72.35999-1.20001.47998-1.01999.36005h-1.13998l-.66.12h-.72l-.78-.42004-.42001.06-1.01999.36005-.42001.23999h-.29999l-.89999-.23999-.72-.36005-.66-.41998-.48001-.17999h-.41998l-.60001.29999-.48001.35999-.41998.06006-.60001.06-.30002.17999-2.45999-.12h-.95999l-2.28-.60004-.89999.35999-.90002.30005-.29999.06h-1.67999l-.54001-.30005-.72.36005-2.16.17999h-.66l-.47998-.35999-1.14001-.24005-.84-.41998-.60001-.71997-.47998-.84003-.60001-.71997-.36002-.66003-.29999-.47998-.84-.66003-1.02002-.65997-.66-.41998-.78-.42004-.47998-.23999h-1.74002l-.53998.17999-.54001.72003-.66,1.02002v-.90002l-.12-.59998-.23999-.36005-.18002-.41998-1.07999-1.02002.06-.59998v-.35999l-.48001-.54004-.35999.24005-.12.59998-.24002.41998-.78.48004-.53998.35999-.30002.17999-.66.35999-1.13998.41998-.42001.12-.29999.30005-.12.59998v.47998l-.42001.66003-.17999.06-.17999-.41998-.06-.48004.23999-.59998.17999-.47998.17999-.78003-.12-.47998-.12-.36005-.41998-.17999-.72.06-.72.48004-.78.59998-.54001.29999-.84.23999h-.95999l-.96002.84003.06,1.44.24002.35999.06.35999-.36002-.06-.47998-.23999-.36002.06-.35999.30005-.72.41998-.36002.41998-.60001.66003-.23999.17999-1.67999.71997-1.92001.35999-.35999.90002.47998.47998.18002.48004-.48001.77997.36002.90002.17999.29999h.95999l.95999-.17999,1.86002-.66003.12.24005-.89999.41998-.78.77997-.54001.12-.84.42004.06.23999.42001.29999.71997.35999h.42001l.66.42004-.12.65997-.60001.90002.29999.77997-.06.60004-.41998.29999-.78-.54004-.54001-1.13995-.23999-.42004-1.38-.53998-.60001.23999-.12.78003-.30002.65997-.12.06-.41998-.06-.12-.41998-.18002-.29999-.53998-.18005-.90002.12006-.59998.29999-.84003,1.07996-.84.60004-2.16.12-1.62.59998-1.56.66003-1.5-.06-1.25998-.17999-1.08002-.60004-1.01999-.47998-.96002.35999-.78.29999-.89999.54004-.23999.89996.35999.48004.54001.35999.42001.35999-.24002.35999-1.25998.48004-.54001-.12h-.29999l-.78.06-.96002.47998-.84.17999-1.01999.12-1.08002.23999-.53998.36005-.60001.41998-.36002.77997.06.66003.84003-.17999.53998-.06h.54001l.12.29999-.17999.41998c-1.20001.95502-2.73502.80402-3.36002,2.52002l-.12.59998v.90002l.42001.47998-.06.72003-.30002.53998-.17999.47998-.35999.54004-.18002.89996.18002.54004v.53998l.17999.41998h.12l.48001-.23999.17999-.47998.23999-.35999.36002-.36005.72-.53998.59998-.17999.54001.53998.60001.72003.17999.29999-.12.71997-.12.60004.54001.65997.59998.41998.18002.66003-.12003.29999-.17999.29999-.23999.54004.23999,1.07996.17999.54004.36002.17999h.66l.29999-.29999.17999-.54004.78003-.59998.78-.06.59998.06.48001-.06.72-.29999.66-.30005.06-.47998.35999-.41998.36002-.54004.06.48004.06.59998v.41998l-.23999.48004-.48001.53998-.78.54004-.54001.17999-.89999.89996-.60001.78003-.47998.47998-.18002.78003-.17999.47998-.84,1.44-.17999.47998-.06.90002.41998.59998.66.48004.24002.53998.06.89996.29999.24005h.42001l.59998-.30005.24002-.59998.17999-.41998.12-.29999.29999-.24005.36002-.12.17999-.41998.17999-.53998.24002-.48004.78.06h.60001l.41998-.59998v-.29999l.17999-.54004.54001-.65997.36002.12.29999.12,1.20001-.47998-.66,1.08002.17999.59998.23999.90002-.12.47998-.84,1.02002-.48001.89996v.90002l.30002.59998.12.54004-.29999.89996c-.40302,1.48199-1.31003.98102-1.44-.35999l-.30002-.29999-.41998-.17999-.48001.29999-.42001.17999-.47998.23999-.12.65997.59998.54004.48001.17999c.98099.69897,1.55801,1.55103,2.88,1.67999l1.32001.12.78-.35999.41998-.29999.12-.29999.60001-.30005.42001-.06.41998.12.12003.24005-.36002.41998-.42001.12-.89999.77997-.53998.66003-.24002.59998-.47998.35999-1.08002.30005-.35999-.17999.06-.30005-.17999-.23999-.48001.29999.17999.66003.23999.53998-.23999.41998-.54001.30005h-.41998l-.42001.53998.36002.65997.41998.42004.30002.23999.35999.71997.54001-.17999c1.26099-1.13397,4.26401-2.12598,4.98001-3.71997l.35999-.23999.12.23999-.12.83997-.17999.48004-.17999.41998-.60001.53998-.66.42004-.60001.41998-.89999.47998c-1.604,1.79498-1.47299.54004-2.34,2.22003l-.60001.95996-.29999.42004.29999.41998.35999.59998-.29999.36005-.60001.29999-.53998.23999-.48001.47998-.17999.66003.06,1.01996.06.54004.06.83997-.12.66003.35999.77997.24002.60004-.42001,1.5.23999.83997.36002.23999.41998-.12,1.14001-.77997.66-.60004.66-.65997.78-.72003.17999-.47998,1.44-1.02002,1.5-1.07996,1.32001-.66003,2.39999-1.38,4.01999-.35999.95999-.35999.66-.54004,1.20001-.41998,1.13998-.17999.12003,1.20001.23999,1.08002.66.95996,1.5-.23999,1.01999.66003.23999.47998-.17999.89996-.95999.42004-1.08002.65997-.65997.72003-.54001,1.01996-.23999,1.26001-.06003.66003.54001.77997.54001.53998.35999,1.08002.36002.72003.72.29999,1.07999-.12,1.92001-.96002,1.07999-1.20001,1.08002-.41998.78-1.08002.53998-.41998.48001.41998.06.78003.89999.41998,1.68002-.47998.47998-.35999,1.80002-.18005.53998.06006,1.68002.41998.66.47998.59998.41998.06.72003.42001.35999.35999.12,1.32001-.53998.42001-.72003.47998-.12.66.12.72,1.20001.30002.29999h1.13998l.78-.29999.95999-.47998,1.20001-.35999,1.44-.90002.78-.71997.42001-1.32001.12-.84003.17999-.83997,1.14001-.66003.23999-.12,1.26001.65997.29999.42004,2.04001.17999h.84l1.38.47998.65997.12,2.76001-.65997.89999-.54004.48001.12006,1.5.59998.54001.35999,1.79999.17999h.36002l.78-.29999.66-.12.29999.23999.17999,1.44.17999.96002.48001,1.07996.12,1.08002-.06,1.14001-.17999,1.5-.23999.65997-.06003.66.30002.95999.23999.96002.06.35999c1.755,1.56201,1.96402-1.49399,5.70001,0l1.26001.78.59998.30002.48001.35999.23999.23999.78,1.38.12003.66-.30002,1.08002-.29999.59998-.54001.60001-.48001.48001-.12.23999-.17999.60001-.06.12-.42001.89999-.23999.66-1.26001.66-.66.60001-.65997.78-.24002.89999-.47998.48001-.72.41998-.66.48001-.96002.84-.47998.60001-1.26001.17999-.89999.06-.48001.12-.78.30002-.47998.41998-.60001.78-.78,1.08002-.54001.66-.41998,1.07999-.72,1.26001-.48001,1.07999-.36002.60001-.47998.42001-.66.12-1.79999-.30002-.42001-.12-.36002.17999-.17999.66v1.56l.06.66.66,1.02002.84.89999,1.02002,1.19998.53998,1.02002.30002,1.62-.48001,1.85999v1.02002l.23999.89999-.17999.84v1.20001l.24002,1.31998.17999.72-.36002.96002-.12,1.01999-.12.48001.06.84.54001,1.07999.12.60001-.12.35999-.84,1.20001-.60001,1.73999-.06,1.02002.95999.89999.66.72.06.54001-.23999.41998-.54001.60001-.72.89999-.95999.72-.30002.12-.41998.24002-1.92001.41998-1.07999.66-.78.84.12.95999.23999.66.17999,1.08002.60001.72.96002.72.65997.66.72.65997.48001,1.14001.23999,1.44v1.67999l-.23999,1.26001-.35999,1.62-.36002.95999-.84.30002c-2.996,3.34.50601,4.004-2.76001,5.75998l-14.22.12003.12.47998.36002.72-.06,1.26001.29999.66.96002,1.07999.35999.42001,2.22,2.03998.72.84003,1.01999.59998.78.36002.36002,1.25998-.30002,1.38-.41998,1.32001.35999,1.26001.42001.60001.95999.78.54001.59998-.17999,1.02002v.95999l.59998.89999,1.08002.36002.41998.06.90002,1.25998-.12.42001-.24002.95999.42001.66,1.38.12.59998-.17999.42001-.12,1.5.48001.66.59998v1.56l-.23999,1.20001-.54001,1.79999-.42001.48001-.41998,1.14001.29999.84-.12.78-.48001.53998-1.13998.60001-.66.24002-1.62.78-1.20001.78-.54001.35999-.78,1.38-.53998,1.01999.06,2.52002-.30002,1.01999-.66.84-.35999.84.06,1.02002.12,2.09998-.47998,1.14001.17999.78.41998.54001.54001.35999.84.66,1.08002,1.86002.29999.53998.84.66,1.02002,1.26001.65997.84.36002,1.20001.12.53998.84.54001.36002.17999,1.5-.17999.84-.29999.41998-.36002.90002-.41998.23999.17999-.30002.78c-1.15298,2.151-.948,2.638-1.85999,4.56l-.72,1.07999-.89999.06h-1.32001l-.35999.36002-.54001.78-.54001.35999-1.32001.42001-1.07999-.17999-.29999.29999-.06003.78-.12.89999-.23999,1.20001-.36002.78-.35999.89999-.17999.54001-1.98001,1.91998-.60001.48001-.89999.78-.41998.60001-.30002.89999v.54001l-.17999.72-.36002.66c-3.93997,4.414.24503,5.50998.84003,10.25998l.06.96002v5.16l.66.17999.78.47998.78.18002h.47998l.48001-.18002,2.28-.17999.66.12,1.91998-.41998h1.56l.48001-.54001.36002-.06.59998.29999.54001.06,1.08002.48001.78.54001h.29999l.84-.48001.12-.29999.06-.60001.42001-.54001.35999-.53998h.18002l.06.29999-.12,1.20001v.65997l.17999.60001.12.24002.60001.47998,2.81998,1.32001,1.14001.72.42001.17999,1.85999,1.73999,2.04001,1.62003,1.44.84,1.07999,1.07999.89999,1.02002,1.14001,1.79999.66,1.07999.41998.48001.54001.06.42001-.06.65997-.29999-.12,1.25998-.35999.90002-1.62.29999-.48001.89999v.78l.23999.95999.54001,1.38.29999.60001.90002.78.72.23999h1.19998l.48001.12003.66.89999.29999.72.17999.53998.90002.78003.12.78-.06.53998-.30002.12-.53998-.06-1.08002-1.01999-.48001-.66-.12-.35999-.53998-.18002-.48001.24002.06.53998.48001.30002.89999,1.26001.23999.35999,1.32001,2.28.29999,1.14001.60001,1.67999,1.14001,2.10001.35999.65997,1.38,1.38,2.88.66,1.13998-.06,2.16,1.14001,1.98001,2.39999.54001.47998.84.36002.47998.17999,1.14001.12.47998.06.60002.24002.59999.66.36.47998.60001.36002.53999.12h.24001l.84-.36002.60001-.06.48-.06.72-.47998.48-.36002,1.2-.84.12001-.42001v-.59998l-.3-.42001-.18001-.41998-.23999-.48001.06-.36002v-.59998l.78-.30002.24001-.12.29999-.12.3.17999.24001.12.17999.30002.06.35999.18001.36002.24001.23999h.42l.17999-.06.42-.29999.12001-.60001-.06001-.30002-.06-.35999-.06-.36002.12-.53998.06001-.60001.12-.36002v-1.01999l.96001-1.20001,1.2-1.79999.72-.84.95999-1.08002,1.26001-.47998,1.31999-.60001.96001-.42001.78-.23999.72-.66,3.36-1.13998,1.67999.23999,3,.12.47998-.41998,1.20001-.30002.95999-.84,1.44-.72.89999-.54001.66-.95999.90002-.78.23999-.29999.60001-.96002.29999-.53998.48001-.72,1.01999-1.02002.66-.17999h.48001l.35999.12,1.5.30002,1.98001.12,1.01999-.36002h1.5l.84-.17999.89999-.29999.48001-.30002.78-.23999h.36002l.59998.17999.48001.06.48001.18002.53998.12.54001-.06,1.14001-.36002.53998-.29999,1.68002-.06.17999.06h.53998l.72.35999.18002.12.59998.30002.30002.12.41998.12.30002.17999.78-.06h.29999l1.02002-.47998.66-.24002.65997-.17999,1.08002.23999.84.42001,1.32001.48001.89999.41998h1.07999l.60001-.06.84-.48001,1.08002-.59998.47998-.36002.84-.17999,2.70001-.12,2.70001-.17999h1.79999l1.67999.06,1.80002.06.66.12.89999.78.35999.41998,1.26001.66.84.30002,1.44.12c4.07001-.15701,2.62-4.59299,6.29999-5.34l1.02002.06,1.13998.06.36002-.06,1.5-.12,1.19998-.12.54001.17999.60001.35999.23999.54001.24002.42001.89999.72.47998.89999.18002.29999,1.01999.30002.35999.29999.24002.23999.41998.06.36002-.29999.06-.36002.60001-.59998.89999-.60001.78-.72.78-.95999.35999-.42001.18002-.54001.47998-1.19998.42001-.78.41998-.36002.60001-.23999.30002-.23999.59998-.36002h.12003v-1.20001l.17999-.84c.39899-1.284,1.422-3.26898,1.67999-4.31998l.42001-1.5.72-1.38c1.20798-1.93201,2.71399-3.65601,3.78-5.70001l.78-.72,1.07999-.47998.89999-.96002,1.20001-.47998c2.51099-1.05502,2.02399-2.73602,4.20001-3.78l.53998-.30002,1.80002-1.19998,2.03998-.72,1.02002.23999,1.13998.48001.84.35999.84.06.24002-.23999.17999-.66.17999-.48001,1.38.06,1.26001.36002,1.56.66.78-.36002,1.32001-.41998,1.07999-.24002.72.06.84-.17999.66-.23999.48001-.42001.35999-.59998v-.54001l-.06-.66-.35999-.23999-.54001-.54001-.36002-.48001-.29999-.47998-.17999-.30002.06-.60001-.06-.29999v-.23999l.12-.72.41998-.48001.30002-.29999.29999-.42001-.17999-.89999.17999-.60001c.52802-3.306-.29099-2.85498,2.70001-5.39999l.23999-.54001v-.78l-.06-.89999.06-1.01999.30002-.96002.53998-1.73999.30002-.84.06-.29999.72-.48001.59998.06,1.08002-.23999.72-.12003.66-.06v-.72l-.78-1.13998-.24002-.66-.17999-.42001.12-.65997.24002-.66.59998-1.02002,1.26001-.72c1.59302-.664.67599-1.224,1.86002-2.81998l.78-.66.84-.42001.66-.35999,1.01999-.66,1.56-.66.54001-.48001,1.19998-.29999h.90002l.65997-.06.66-.17999.42001-.36002.12-.48001v-.35999l.23999-.89999.30002-.42001.47998-.23999h.72l1.20001-.17999.84-.24002.12-.59998c.80902-1.34802,2.789-2.99402,4.38-3.36002l.30002-.17999v-.36002l-.06003-.41998-.41998-.42001-1.01999-.72-.48001-.89999-.36002-.35999-.72-.42001-.65997-.54001-.66-.35999-1.14001-.23999-1.26001-.18002-.65997-.29999-1.32001-1.01999-.72-.96002-.42001-.29999-.53998-.84-.48001-.89999-.72-1.14001-.66-1.07999-.78-1.44-.29999-.72-.24002-1.02002v-1.01999l.30002-1.01999-.17999-.48001-.60001-1.26001-.60001-.59998-.66-2.40002-.23999-.41998-.30002-1.44-.23999-1.20001-.48001-1.67999v-2.70001l.36002-1.13998.47998-1.01999.24002-1.26001,2.39999-2.16.23999-.84.66-1.73999-.06-.90002.42001-.72.78-.89999,1.01999-1.07999.17999-.12.36002-.42001.60001-.78.84-.78.41998-.54001.66-1.25998.48001-.90002.23999-.53998c1.918-4.20401,2.85699-1.50201,4.20001-7.08002l.89999-.95999.41998-.60001.96002-.78.84-.60001c3.14801-1.922,3.41501-4.293,5.34-7.07999l.29999-.54001.48001-.95999.29999-.66.36002-.78.29999-.66.24002-.48001.23999-.53998.48001-1.32001.59998-.54001.90002-.53998,1.01999-.72.84-.30002.42001-.12.59998-.29999h.24002l.06.29999-.36002.29999c-1.61499.737-.729,1.10703-1.56,1.74002l-.35999.06-.30002-.48001-.29999.17999-.12.66.29999.36002.48001.17999.66-.17999.66-.48001.72-.78.59998-1.01999.42001-.66.60001-.84h.66l.41998-.12,1.02002-.72.47998-.24002.48001-.47998.12-.36002.06-.60001-.23999-.47998-.54001-.24002c-1.035-1.806-2.44299-1.59299-4.13998-1.62l-.48001-.35999-.30002-.36002.66-.95999.66-.41998.96002-.90002.78-.66.35999-.72.48001-.59998,1.5-.96002.12-.17999,1.38-1.73999.89999-.66,1.01999-.66.54001-.84,1.62-.72.36002-.12h2.03998l.72.23999h.17999l.30002-.12.35999-.29999.18002-.24002.23999-.29999.54001-.36002.47998-.23999.84-.35999.60001-.24002.54001-.17999.41998-.17999,1.68002-.95999,1.19998-.54001,4.38-.78,2.22-.66.66-.23999,1.07999-.24002,1.38-.47998,1.02002-.30002,2.03998-.17999,1.08002-.36002,1.19998-.53998c7.62601-1.84601,5.76901-.76102,8.52002-6.12l.78-.78.29999-.24002.78-.53998.60001-.36002.48001-.23999.53998-.24002.84-.59998.30002-.36002,2.63998-1.38,1.32001-.78,1.26001-.47998,1.44-.54001,1.07999-.54001.78-.84.89999-.54001,1.02002-.59998c3.17899-1.20401,4.08499-2.13702,6.72-4.19998l.60001-.48004.41998-.47998.54001-.47998.66-.72003c2-1.69397,4.78098-2.38196,4.62-5.70001l-.06-.47998-.12-.23999-.18002-.41998-.35999-.42004-.17999-.29999-.12003-.41998v-.47998l.12003-.54004.23999-.53998.12-.12-.06-.47998-.66-.78003-.60001-.35999-.47998-.66003-.66-.47998v-.90002l-.23999-.71997v-1.62l.06-.41998.29999-.42004.06-.17999.48001-.41998h.89999l.72.23999.23999.17999.66.29999.54001.06.41998-.35999.18002-.17999.35999-.41998.12-.17999.30002-.72003.12-.17999.17999-.71997v-.30005l-.23999-.59998-1.14001-.29999-1.25998-.17999-.54001-.24005-.42001-.29999-.29999-.29999-.23999-.17999v-.72003Z"/><path class="cls-1" d="m57.06001,378.06l-1.02-.23999-.78.17999h-.96l-1.5-.12-.48.17999-1.02.72-.6.54001-.78001.60001-1.07999.66-.54.60001-.54.72-.48.59998-.84.60001-.9.36002-2.04.29999-1.25999.17999-.84.24002-1.32.06h-1.02l-1.8-.12-1.32.35999-.24.29999-.42001.54001.36.54001,1.26.95999.3.48001.06.78.12,1.32001.42,1.19998,1.26,1.56.48.54001.66,1.25999.24,1.14.54,1.14.42.36,1.44-.06.36-.60001c4.99699-2.19099,3.493-2.619,6.53999-7.01999l.9-1.67999-.18-1.32001v-1.07999l.36-.96002.48-.66.66-.41998,1.14-.54001.72-.35999,2.46-1.08002.60001-.66.53999-.53998.36-.96002-.3-.53998-.42-.06003Z"/><path class="cls-1" d="m130.43999,357.06l-.06001.72-.29999.36002-.60001,1.38-.06.47998-1.86.54001-.84.23999c-1.789,1.08002-2.00101.358-3.66,1.32001l-.48.54001-.48001.60001c-2.103,2.32098-.746,1.966-1.67999,3.78l-.54001.53998-.06.42001.36.23999.60001.24002.59999.41998.66.66.42.23999.60001-.17999.42-.66.06-.47998.54001-1.08002.48-.35999,1.14-.24002,1.62-.35999.42-.42001.54001-.17999,1.67999-.47998,1.38-1.5.17999-.60001-.12-.66-.12-.66-.18001-.84v-.78l.3-.48001.3-.35999.72-.48001.48-.48001.06-.47998-.53999-.66-.66-.23999-.78-.24002-.18001-.41998.18001-.42001-.42-.78-.84.12-.54001.48001-.3.48001.12001.53998.42.24002h.48l.36-.24002.18001.17999Z"/><path class="cls-1" d="m108.36001,391.31998l-2.76001,1.08002-.89999.35999-.96001-.17999-.48-.17999h-.84l-.48001.59999.18001.84.48.48,3.3-.23999.96001.17999c3.327-.293,1.27599-1.784,4.2-2.94l1.73999-1.07999,2.10001-.89999c3.039-.02802,4.272-1.409,5.52-4.14001l.12-1.07999-.42-2.34.42-1.5.48-1.56.42-1.14001,1.08-1.5.18001-1.73999-1.98001-1.92001-.95999-.12-1.68001.36002-1.2.53998-.95999,1.56-.18001.90002-.42,1.31998-.89999,1.44-.60001.84-.42,1.74002-.84,1.97998-.90001,1.26001c-1.41699,1.91699-.586,3.31201-1.86,5.64001l-.89999,1.01999-.53999.41998Z"/><polygon class="cls-1" points="72.72 403.85999 75.06 402.89999 76.25999 402.53999 76.86 401.81999 77.46 401.03999 77.93999 399.95999 77.93999 398.7 77.82 397.43999 77.93999 396.23999 77.64 394.85999 77.28 394.2 77.1 393.59999 77.1 391.67999 77.39999 390.95999 77.64 390.06 76.8 390 76.02 390.60001 75.48 391.38 74.28 391.26001 73.2 391.07999 71.16 391.26001 70.86 391.20001 69.3 390.35999 68.93999 390.29999 68.64 390.66 68.46 391.38 68.75999 391.5 68.82 391.98001 68.88 392.22 68.75999 392.76001 68.34 393.35999 67.8 394.62 67.5 394.85999 66.72 395.51999 66.06 396.12 65.75999 396.78 65.7 397.43999 65.7 398.45999 65.82 399.65999 66 400.14 66.66 401.09999 67.25999 401.75999 67.98 402.35999 68.57999 402.78 69.12 403.2 69.96 403.85999 70.32 404.28 70.8 404.39999 71.82 404.45999 72.48 404.28 72.72 403.85999"/><polygon class="cls-1" points="29.94 392.21997 29.34 391.5 28.68 390.95999 28.08 390.29999 27.42 389.63998 26.82 389.21997 26.4 389.34 25.74 389.57999 25.32 389.75998 24.54 390.17999 24.18 390.47998 23.82 390.95999 23.7 391.91998 23.76 392.34 24.12 393.23997 24.48 393.95998 24.9 394.49998 25.38 395.09998 25.86 395.51997 27.06 395.63998 27.78 395.39998 28.62 394.79997 28.92 394.31998 30.18 393.41998 30.24 392.93997 30.18 392.51999 29.94 392.21997"/><polygon class="cls-1" points="2.64 403.67998 1.32 403.13998 .84 403.01999 .54 403.25998 .18 403.55998 0 404.09999 .12 404.69998 1.08 405.23999 1.74 405.53998 2.4 405.65999 3.18 405.65999 3.96 406.19998 4.32 406.79999 4.56 407.09999 4.98 407.33998 5.46 407.33998 5.76 406.85999 5.88 406.61998 6 406.07999 6.18 405.35999 6.48 404.63998 6.84 404.09999 7.68 403.31999 7.86 403.13998 8.1 402.41998 8.28 401.99998 8.16 401.39998 7.74 400.79999 7.56 400.43999 7.08 400.13998 6.48 400.13998 6.06 400.49998 5.52 401.03998 5.1 401.39998 4.68 401.81999 4.44 402.17998 4.26 402.65999 4.02 403.07999 3.54 403.55998 2.64 403.67998"/><path class="cls-1" d="m10.62,368.93997l-.96.54001-.78.30002-.48-.30002-1.02-.47998h-.48l-.24.17999-.48.54001-.42.35999-.36.35999-.48.66.12.66.18.48001c.873,2.746,2.821,5.077,3.24,7.98001v.29999l.72,1.20001h.3l.48-.24002.54-.89999.96-2.16.06-.89999.36-.89999-.24-.60001-.42-.78v-.89999l.48-.42001.72-.48001.36-.65997-.12-.78-.54-.54001-.36-.72-.12-.84-.18-.36002-.84-.60001Z"/><polygon class="cls-1" points="403.68 253.37997 403.74 253.91998 404.03999 254.22 404.57999 254.34 405.05997 254.03998 405.35999 253.67999 406.07999 253.31998 406.61997 253.31998 407.21998 253.67999 407.57999 254.03998 407.87998 254.28 408.3 254.45999 408.77998 254.45999 409.19999 254.28 409.43998 254.03998 409.61997 253.67999 409.61997 253.37997 409.43998 252.95999 409.02 252.72 408.65998 252.72 407.69999 252.84 406.55997 252.12 406.31998 251.69998 406.13999 251.45999 405.47999 250.79999 405.11997 250.62 404.75999 250.79999 404.39997 251.28 403.85999 251.39999 403.91999 252.12 404.09998 252.41998 403.97999 252.95999 403.68 253.37997"/><path class="cls-1" d="m433.07999,217.67999l-.96002.78003-.41998-.18002-.54001.06-.23999.30002.59998.41998-.17999.42001.12.48001.36002-.12003.41998.24002.12003,1.13998.17999.24002,1.25998-.18002.30002-.17999.54001-.23999.53998.06.36002.41998-.06.54001-.12,1.14001.35999.47998.60001.12.66-.35999.53998-.54001.48001-.72.60001-.60001.78-.53998.66-.42001.78-.29999.72.12.89999.35999.48001.48001.06.78.06.54001.41998,1.13998v.90002l.06.53998.18002.84.12.54001.41998.54001,2.76001.60001.72-.18002.72.12003,1.26001.59998.78.54001.41998.48001.78.89999.30002.66.17999.29999.78.17999.48001-.29999.41998-.35999.89999-.84003.84003-.84.89999-1.07999,1.5-1.14001.72-.89999.53998-1.5.12003-.89999.23999-1.01999.48001-.78,1.31998-1.56003.36002-.89999.72-1.01999.84-1.67999.35999-.78.36002-.90002.17999-.65997-.42001-.60001-.29999-.24002-.72-.41998-.72-.48001-1.38-.12-1.38.78-.84.42001-1.56-.24002-.72-.17999-1.07999-.60001-.48001-.60001-.12-1.43997.60001-.36002.78-.60001.60001-.60001-.12-.53998-.42001-.17999-.60001.17999-.95999.41998-.54001-.12-.17999-.41998.35999-.54001.12003-.36002.59998-.65997.60001-.42001.84-.48001.12-.41998-.29999-.54001-.35999-.17999-1.14001.35999-1.67999.78-1.26001.60001-1.85999.12-1.08002.72c-4.78998,2.93201-9.11301,5.30499-13.07999,9.42001l-1.26001.54001-1.19998.71997Z"/><polygon class="cls-1" points="450.3 234.65997 449.69999 234.06 449.51997 234.29999 448.85999 234.53998 448.43998 234.78 448.01997 235.5 448.07999 235.97998 448.37998 236.69998 448.8 236.87997 449.15998 237.06 449.51997 236.69998 449.69999 236.03998 450.11997 235.56 450.3 235.13998 450.3 234.65997"/><path class="cls-1" d="m475.02,201.47998l-.96002.72-.53998.06003.23999.65997-.06.42001.53998.42001.42001.17999.66.53998-.12.24002-.30002.35999.72,1.20001.78.12.60001.12.66-.12.48001-.12h.29999l.36002-.06.95999-.06.59998.23999.59998.17999.66003.30002c1.487,1.091,2.46301,3.51398,4.91998,3.89999l1.38-.06.29999-.30002-.17999-.41998-.06-.78v-.54001l.29999-.12.54004.12.17999.17999.17999.66.23999-.12.12-.84-.29999-.95999-.35999-.90002-.42004-1.01999-.47998-.29999-.65997-.48001-.66003-1.13998-.47998-.54001-.41998-.42001v-.53998l-.17999-.60001-.78003-.30002-.59998.96002-.17999.23999-.54004-.23999-.53998-1.08002.06-.35999-.96002-.48001-.41998.36002c-1.72198,1.13599-3.75198.53598-5.69998.65997l-.89999.06Z"/><path class="cls-1" d="m404.63999,245.93997l.23999-.53998.72-.72.54001-.17999c1.22299-.80402,2.23599-2.42902,3.06-3l.72-.54001.06-.48001.47998-.29999.30002-.30002-.06-.47998-.48001-.60001-.17999-1.26001-.24002-.47998-.53998-.24002-.48001-.12-.60001.12-.66.24002h-.35999l-.48001.17999-1.73999.41998-.17999.06003-.54001.47998-.29999.17999-.90002.12003-.47998.23999-.54001.29999-.48001.36002-.41998.60001-.06.17999v1.01999l.17999.23999.23999.72-.06.12003-.54001.23999-.41998-.06-1.08002-.12-.17999.35999-.12.66-.12.42001.06.29999-.23999.48001.12.78.47998.41998.78003.17999.53998.42001h.72l.66-.12.84.35999.48001.36002.17999.35999.60001.36002.41998-.24002.24002-.65997-.06-.54001-.18002-.12.06003-.18002Z"/><polygon class="cls-1" points="209.88 353.39999 208.97999 352.98001 208.91999 353.76001 209.16 354.24002 209.75999 354.60001 209.99999 354.78 210.17999 355.02002 210.35999 355.20001 210.89999 354.72 211.25999 354.30002 211.25999 353.82001 209.88 353.39999"/><polygon class="cls-1" points="276.66001 372.29999 277.07999 372.23999 277.68 372 278.03999 372.29999 278.22001 372.29999 278.28001 372.66 278.52 373.01999 278.75999 372.12 278.94001 371.22 278.87998 370.73999 278.57999 370.26001 277.85999 369.66 277.50001 369.78 277.02 370.5 276.41999 371.16 276.41999 371.64001 276.66001 371.94 276.72001 372.23999 276.66001 372.29999"/><path class="cls-2" d="m313.07999,72.89996l.12.30005,1.25998,1.73999.06.47998,1.20001.90002.60001.95996.54001.66003.53998-.06.72-.72003,1.02002-.53998.89999-.06,1.01999.06.72.41998.42001.23999.84.78003.23999.65997.17999,1.20001-.17999.54004-.23999.65997v1.02002l-.24002.29999-.89999.41998-.53998.47998-.12003.72003v.53998l.48001.78003.66.17999.35999.47998,1.08002,1.08002v-.35999l.29999-1.08002.54001-.59998.17999-.84003.24002-.77997.47998-.24005.78.12.36002.06.29999.66003-.54001.47998-.23999.06-.06.54004.17999.17999.84.53998,1.08002.41998,1.07999.60004,1.44.29999,1.32001.47998.60001.17999.53998.24005.78.41998.60001.41998.42001.12,1.44.48004.29999.06.84.23999,1.14001.47998.78-.29999.89999-.17999,1.07999.41998.42001.29999.29999.66003.66,1.07996,1.38,1.14001.17999.23999,2.34003,1.56.23999.66003.12.17999.89999.35999.42001-.47998.23999-.35999.42001-.18005.78.54004.53998.23999.84003-.06.41998-.12.29999-.35999.36002-.48004,1.44-.35999h.29999l1.02002.23999,1.01999.42004,1.01999.59998.42001.29999,1.20001-.17999.12-.06.95999.47998-.12.72003.23999.77997.36002.54004,1.67999,1.01996,1.32001.48004,1.07999-.17999,1.14001-.36005,1.91998-.41998,1.62.06c1.40701.76703,2.561,2.31,4.14001.47998l.54001-.65997.78-.12.35999.41998.60001.78003.35999.06.66-.48004,1.86002.54004,1.56.41998,1.44-.17999.60001-.47998.47998-.54004.36002-.71997-.18002-1.08002v-.59998l.24002-1.68005.35999-.47998.66-.35999.84-.53998.84.17999h.42001l1.73999.95996,1.02002.36005.78.17999.89999.17999.95999.17999h.95999l2.52002.83997.72.60004,1.01999.96002.42001.29999,1.01999.23999.72.12,2.82001.35999.53998.29999.48001.30005,1.20001,1.38.23999.71997.06.65997.29999,1.44.12003.48004v.71997l.29999.35999.12.48004-.35999,1.14001-.30002.53998.30002,1.08002.60001.47998,2.21997.06,1.32001-.35999,1.02002-.23999,1.56-.60004,1.19998-.77997.66.12.48001-.29999,1.85999.47998.72.65997,1.08002.84003.59998.71997.96002.12.84.60004.35999.59998.54001.96002.29999.53998,1.14001.72003.29999-.12,1.08002-.48004c1.96698-2.31299,2.76401-3.56598,6.23999-2.51996l.89999.12.66.23999c1.686.99896,2.99301,2.89099,5.04001,3.23999l.60001-.23999.17999-.41998.84-.06,1.01999-.06006.36002.12006.23999.23999.96002.06.17999-.35999v-.30005l-.17999-.41998.12-.59998.54001-.78003.29999-.17999.48001-.12,2.22-.17999.72-.17999.29999-.36005.54001-.41998.84-.35999.47998-.29999.36002-.12,2.34.17999,1.01999-.12.36002.23999.35999.17999.36002.12.29999.23999.66.35999h.84l.60001.06.54001-.17999h.60001l-.30002-1.01996-.72-.72003c-.69299-.89801-1.13901-1.64301-1.91998-2.51996l-.66-.96002-.24002-.72003-.23999-1.31995-.54001-1.14001-.06-1.38.06-2.04004v-1.43994l-.06-1.62006.18002-1.19995-.12003-1.02002.06-3.06.18002-1.26001.29999-1.08002c3.535-7.26099,1.34799-4.17395,9.48001-10.19995l1.13998-.90002,1.20001-.59998c5.20401-2.05304,6.63199-3.91302,10.44-7.74005l2.03998-1.62,1.32001-.95996,3.17999-1.20001,1.85999.89996.54004.30005,2.39996,1.91998.23999.17999,1.26001.47998.72003.24005,1.56.35999,3.77997.06,1.62.29999,1.5.84003.72003.77997c1.12897,2.93201,2.58398,3.76099,5.64001,2.88l.17999-.35999.06-.54004-.72003-.47998c-2.95599-2.50201-1.55701-4.64301-2.03998-7.67999l.35999-.41998.60004.35999.23999.35999.71997.48004.35999.65997.06,1.14001-.17999.53998-.17999.47998.17999,1.02002.23999.66003.30005.59998.41998.53998.59998.54004.42004.17999.41998-.06.47998-.78003,1.5-.59998,1.62.23999,1.08002-.17999.84003-1.62-.48004-.78003-.23999-1.44.12-.83997,1.38-.29999,1.14001.47998c1.04297,1.66199,2.07397,1.75299,3.83997,1.44l.30005.23999.35999.77997-.17999.84003-.66003.78003-1.07996.47998-.60004.53998-.83997.29999-1.56.18005-.84003.29999-.59998.47998.29999,1.44.71997.47998h1.98004l1.62-.59998.59998-.12.96002-.06,1.56.41998.83997.60004.54004.95996v2.10004l.35999,1.44,1.5.47998,2.34003-.06c2.64496,1.22498,1.35095,1.14899,4.31995,1.26001h1.14001l1.73999.83997,1.20001.84003.41998.59998.54004.84003.59998.65997,1.02002.41998h.47998l.23999-.23999-.41998-.71997-.35999-.90002.65997-.65997,1.67999.06.78003.35999,1.79999.90002.53998.35999,1.5-.06.66003-1.02002,1.08002-.23999.83997.17999,1.02002.29999h1.62l1.26001-.59998.12-.12,1.38-1.26001.77997-.59998,1.08002-.24005,1.5-.23999,1.38-.59998,1.08002.06h.59998l1.14001-.35999.59998-.84003-.35999-1.67999-.35999.06-.96002.41998-1.67999.42004-.17999-.36005c.58099-3.16797,5.88397-6.34198,8.70001-7.07996h.06V0h-231.36002v1.20001l-.78,3.77997-.66,2.40002-.17999,1.14001-.17999,4.31995-.06.84003-.18002.41998-.17999,1.08002v1.62l.30002.35999h.17999l.23999-.06.30002-.35999.23999-.12.35999-.29999.24002.06.95999.29999.29999-.23999.54001.29999.42001.17999.47998.54004.36002.41998.66,1.08002-.12003.83997v.72003l-.23999.65997-.78.71997h-.60001l-1.25998-.29999h-.30002l-1.67999.90002-.29999.83997-.60001,1.98004-.54001,2.09998v1.91998l-.12,2.22003-.17999,1.73999-.54001,2.88-.23999,2.28003-1.02002,6.59998-.12,2.58002-.29999,1.38-.48001,2.03998-.12,1.85999-.36002,1.56-.89999,2.70001-.12.47998-.23999,1.02002-.12,1.20001.06,1.14001-.36002,1.01996-.78,1.44-.35999.66003-.60001,1.07996-1.14001,2.22003-.35999,1.14001-.60001.89996-.72.78003-1.44,1.44-.54001.47998-.59998.35999-2.34.35999Z"/><path class="cls-2" d="m114.06001,125.57996l-2.22,2.76001-.36.78003-.36.35999-.3.35999-.36.54004-.78.83997-.72.48004-.54001.53998-.59999.35999-.24001.47998-.06.30005.12,1.56.12001.29999-.06.47998-.06001.60004.3.83997.42.17999.54001.66.84.06.66-.35999.66-.24002h.71999l.60001.30002.3.35999-.18001.24002-.53999.23999-.60001.12-.89999.54001-.72.17999-.72.06-.17999.66.29999.35999.72,2.52002c-.105,2.10001.62601,3.823.60001,6.17999l.12.78.48001,1.07999.89999,3-.06.72v1.44l.3.78.17999.66.42.60001.78.54001.66.41998v.48001l-.3.89999-.36.89999v1.98001l.24001,1.20001-.18001.78-.42,1.19998-.17999,1.14001v.60001l.36,1.79999v.48001l-.18001.72.84001.41998-.12001.78-.3.42001-.36.89999.12001.78.36.17999h1.2l.95999-.29999.72-.12.06001.29999c-3.442,3.19-1.33501,3.552-5.46001,5.51999l-.72.84003-.12,2.93997-.12001,1.68002-.23999,1.67999-.12001.60001-.48,1.38-.12.78-.12,1.19998-.3.84-.36.84-.48.96002-.60001.59998-.48.60001-.24001.66-.42.12.24001.78.65999.24002,1.38.47998,1.02.66.65999.72.18001.66-.96001.42001h-1.31999l-1.02.65997-.3,1.32001-1.2,3.48001-.42,2.34-.60001,2.39999-.89999,1.92001-.84,1.5-.78,2.03998-.18001,2.40002-.12,1.44-.48.89999-.96001.72-1.38.29999-.89999,1.80002-.36.59998.12.78.36.96002-.12.17999-.48.17999-.66.23999-.36-.06-.3-.12-.66.36002-.89999,1.01999-.72.29999-.48.24002-.18,1.25998.54.84003.3.89999-.12,1.38-.24,1.19998-.54,1.20001-.18.41998-.12,1.56-.24,1.20001-.54.95999-.48,1.14001.3,2.39999-.12.66-.60001,1.38-.6,1.07999.18,1.02002-.6.84-.66.78.36,2.03998.12.84003,1.26.89999c4.171.18698,1.682,1.98199,6.35999.12l1.92-.78.66-1.08002v-1.07999l-.36-1.14001.24001-1.67999.42-.95999.59999-.89999.72-1.02002.42-.72c2.10201-3.67697,1.097-2.05197,4.74001-4.5l.53999-.17999,1.62001-.29999,1.37999.54001,1.08-.42001,1.2-.06-1.5.95999-.42.17999-1.62.54001-2.16.78-2.03999,1.38-.84,1.73999-.42001,1.08002-.29999,1.01999.48,1.26001.84.47998.12001.18002.23999.53998-.12.90002.23999,1.01999-.23999.78-1.08.95999-2.03999,1.44-.3.60001-1.26001.84-.17999.60001-.78-.36002-.48-.53998-.66-.42001-.84-.12-.54001.72.3.78.78,1.07999.24001.78.42.84v1.02002l-.12001.89999-.42.89999-.65999.96002.12.89999.06.41998.84.06.54001-.53998.53999-.60001.84-.36002,1.32001-.23999,1.02-.54001,1.01999-.84.36-.47998.24001-.54001.78-.42001h1.62l.96001.66.3.42001.72.60001.59999.17999.3-.06.12-.42001-.48-.23999c-1.685-.797-.642-1.71701.3-2.58002l.84-.35999.78,1.01999-.3.72-.06.30002.36.53998-.23999.60001-.12001,1.26001.24001.29999,1.38.17999h.78l.72.24002,1.2.41998-.06.90002-.54001.47998-1.44.06-1.56-.23999-.95999-.36002-.84001-.23999-.65999.17999-.72-.41998-.3-.24002-.18001.30002v.35999l.72.48001.42.35999.42001.60001.17999,1.44.17999.78.18001,1.26001.17999,2.04001-.17999,1.67999-.3,1.56-.06,1.07999c.13699,1.32602-.813,3.44601-1.5,4.56l-.42.30002-.36.78.17999.29999c3.599,1.604,2.192,4.25101,1.38,7.08002l.18001.66.23999-.06.54001-.36002.36-.41998.48-.36002.3.29999.17999.48001.06.89999-.17999.30002-.42.89999h-.42l-.84001.41998-.48.60001.12.89999v1.5l.42001,1.38.12.66-.12,1.20001.06,1.07999.06.95999-.18001,1.20001.06001,1.08002-.54001.89999-1.02,1.13998-.23999.42001-.18001.60001.06.72.12001.35999v.48001l-.12001.84-.36.47998-.06.42001-.3.89999-.17999.42001-.17999.29999-.18001.95999-.12.42001-.24001.23999-.36.54001-.3,1.01999-.23999.36002-.48001.12-.53999.60001v.29999l.17999.36002.3.29999.42-.17999.48001-.60001,1.37999-.12c1.22101-.55099,3.42401-1.306,4.74001-1.62l.89999-.48001.78-.84.78001-.42001,1.2-.06,1.37999.36002,1.20001.84.72.17999.84.06.59999-.12,1.02-.23999.78.17999,2.16.66.66.06,1.73999-.35999,1.08.06.54001.29999,1.14.42001.78.41998.36.36002.89999.29999,1.14.66.72.29999,1.2.12,1.56.66.36.12,1.02-.17999.24001-.47998.66-.48001.95999-.54001.84-.53998.72-.72,1.08-.78,1.32001-.84003,1.2-.78,1.2-1.13998.78-.60001.96001-.42001.78-.17999.53999-.06v-5.16l-.06-.95999-.17999-.72-.3-.95999-.36-1.26001-.42-.72-.60001-1.07999-.53999-1.32001-.12001-.36002.12001-1.13998.06-.54001.53999-.89999.54001-.60001.42-.66.36-.66.17999-.72v-.53998l.3-.89999.42-.60001.90001-.78.59999-.48001,1.98001-1.91998.17999-.54001.36-.89999.36-.78.24001-1.20001.12-.89999.06-.78.3-.30002,1.08.18002,1.31999-.42001.54001-.35999.53999-.78003.36-.35999h1.32001l.89999-.06.72-1.08002c.912-1.922.707-2.409,1.86-4.56l.3-.78-.24001-.17999-.89999.42001-.42.35999-.84001.30002-1.5.17999-.36-.17999-.84-.54001-.12-.54001-.36-1.19998-.66-.84003-1.02-1.25998-.84-.66-.3-.54001-1.08-1.85999-.84-.66-.53999-.36002-.42-.53998-.18001-.78.48-1.14001-.12-2.10001-.06-1.01999.36-.84.66-.84.29999-1.02002-.06-2.51999.54001-1.01999.78-1.38.53999-.36002,1.2-.78,1.62001-.78.66-.23999,1.14-.60001.48-.54001.12-.78-.3-.84.42001-1.13998.42-.48001.53999-1.79999.24001-1.20001v-1.56l-.66-.60001-1.5-.47998-.42.12-.60001.17999-1.37999-.12-.42001-.66.24001-.95999.12-.42001-.89999-1.26001-.42-.06-1.08-.35999-.60001-.89999v-.96002l.18001-1.01999-.54001-.60001-.95999-.78-.42-.60001-.36-1.25998.42-1.32001.3-1.38-.36-1.26001-.78-.35999-1.02-.60001-.72-.84-2.22-2.04001-.36-.41998-.95999-1.08002-.3-.66.06-1.25998-.36-.72-.12-.48001,14.22-.12c3.26599-1.75601-.23601-2.42001,2.75999-5.76001l.84-.29999.36-.95999.36-1.62003.24001-1.25998v-1.67999l-.24001-1.44-.48-1.14001-.72-.66-.66-.66-.95999-.72-.60001-.72-.17999-1.07999-.24001-.66-.12-.95999.78-.84,1.08-.66,1.92-.42001.42-.23999.3-.12.95999-.72.72-.89999.53999-.60001.24001-.42001-.06-.53998-.66-.72-.95999-.90002.06-1.01999.59999-1.73999.84001-1.20001.12-.35999-.12-.60001-.54001-1.08002-.06-.84.12-.47998.12001-1.02002.36-.95999-.18001-.72-.23999-1.32001v-1.19998l.17999-.84-.24001-.90002v-1.01999l.48001-1.85999-.3-1.62003-.54001-1.01999-1.01999-1.20001-.84001-.89999-.65999-1.01999-.06-.66v-1.56l.17999-.66.36-.17999.42.12,1.8.29999.66-.12.48-.41998.36-.60001.48-1.08002.72-1.25998.42-1.08002.54001-.66.78-1.07999.59999-.78.48001-.42001.78-.29999.48-.12.89999-.06,1.26001-.17999.48-.60001.96001-.84.65999-.48001.72-.42001.48001-.47998.23999-.89999.66-.78.66-.60001,1.25999-.66.24001-.66.42-.89999.06-.12.18001-.60001.12-.24002.48-.47998.54001-.60001.29999-.60001.3-1.07999-.12-.66-.78-1.38-.24001-.23999-.48-.36002-.60001-.29999-1.25999-.78-1.02-.36002h-.78l-.36-.06-1.25999.30002-.48001.29999-.36.23999h-.53999l-.42-.06-.48-.35999-.06001-.36002-.23999-.95999-.3-.95999.06-.66.24001-.65997.17999-1.5.06-1.14001-.12-1.08002-.48-1.07996-.18001-.96002-.17999-1.44-.3-.23999-.66.12-.78.29999h-.36l-1.8-.17999-.53999-.35999-1.5-.60004-.48-.12-.90001.54004-2.75999.65997-.66-.12-1.37999-.47998h-.84001l-2.03999-.17999-.3-.42004-1.25999-.65997-.24001.12-1.14.65997-.17999.84003-.12001.83997-.42,1.32001-.78.72003-1.44.89996-1.2.36005-.96001.47998-.78.29999h-1.14l-.29999-.29999-.72-1.20001-.66-.12-.48.12-.42001.72003-1.31999.53998-.36-.12-.42-.35999-.06-.72003-.60001-.41998-.66-.47998-1.67999-.42004-.54001-.06-1.79999.17999-.48001.36005-1.67999.47998-.90001-.41998-.06-.78003-.48-.41998-.54001.41998-.78,1.08002-1.07999.41998-1.08,1.20001-1.92001.96002-1.07999.12-.72-.30005-.36-.71997-.36-1.08002-.54001-.53998-.53999-.78003.06-.65997.24001-1.26001.53999-1.02002.66-.71997,1.08-.65997.95999-.42004.18001-.89996-.24001-.48004-1.02-.65997-1.5.23999-.65999-.96002-.24001-1.07996-.12-1.20001-1.14.17999-1.20001.41998-.65999.54004-.96001.35999-4.02.35999-2.39999,1.38-1.31999.65997Z"/><path class="cls-2" d="m277.07999,372.23999l-.42001.06003.06-.06003-.35999.54001-.24002.42001-.35999.72-.12.78-.60001.89999-.89999.60001-1.02002.66-3.12,1.31998-1.38.72-1.67999.42001-1.32001.06-1.32001-.23999-.95999-.12-1.67999-.18002-.54001-.41998-.41998-.66-.90002-.54001-1.01999-.66-1.26001-.66-.89999.24002-.66.17999-1.37997,1.20001-.60001.47998-.96002.66-.78.23999-.84-.17999-.53998-.48001-.18002-.29999.18002-.54001.35999-.29999v-.48001l-.72-.06-.41998.48001-.84003.72-1.25998.47998-1.26001.12003-3,.89999-2.22.23999-2.34.54001-1.44.29999-1.85999-.06-1.62003-.35999-2.93997-.84-4.14001-1.20001-1.56-.72-1.32001-.95999-3.53999-3.36002-3.59999-2.45999-1.26001-1.5-.84-1.14001-1.56-1.73999-.84-1.13998-.60001-1.08002-.65999-1.01999-1.44-2.52002-.36-.95999-.18001-.95999.24001-1.14001.24001-.65997.06-.54001.42-.78-.18001-.17999-.17999-.24002-.24001-.17999-.59999-.36002-.24001-.47998.06-.78-.72.23999-1.92.42001-1.25999.53998-1.32001,1.44-.84.36002-1.25999.29999-1.98001.66-1.92.78-1.08.36002h-1.01999l-2.34001.17999-2.28,2.45999-.78,2.70001.12001,1.31998-.3,2.40002-.96001,4.19998-1.02,1.98001-1.56,4.01999-.59999,2.10001-2.64,8.94-.96001,1.44-1.08,1.91998-.84,2.04001-.60001,1.92-.84,2.03999-.59999,1.8-3.54001,4.98-1.08,1.8-.95999,2.40001-.54001,1.92-.84,2.09999-4.32001,6.60001-2.15999,2.16-.72.84-.48.60001c-1.552,1.75999-2.472,1.75499-4.44,2.64l-1.26001.78-1.31999.53999-1.32001.72-.23999.12-2.58,2.10001-.54001.48-.36.18001h-.84l-1.02.23999-.77998.60001-1.14.96001c-1.64601,1.131-2.095,1.66299-3.96001,2.28l-.42.23999-2.40001,1.32001-32.57999,19.5h453.59999v-136.62001l-5.46002-3.59998-1.02002-.54001-1.37994-.78-1.5-1.38-1.38-.89999-.24005-.60001-1.62-1.38-1.44.06-1.97998,1.20001-1.56,3.06-.71997,2.28-.66003,1.62-4.02002,1.5-2.45996.95999-2.16003.72h-4.38l-2.94,1.14001-2.21997,1.20001-2.22003,1.85999-3.12,1.26001-4.85999-.18002-5.94-3.71997-.77997-1.32001-1.74005-1.98001-3.35999-.95999-3.41998-.72-4.56-.42001-3.23999.90002-4.20001.06h-8.22l-3.59998-.78-1.68002.53998-2.69998,1.14001-1.38.84-.42001.29999-1.67999.78-.89999,1.02002-1.98001.35999-2.09998-.23999-2.58002-.23999-1.20001-.72-.29999-.36002-.66.06-.41998.48001-.24002,1.01999-.17999.66-1.73999.23999-1.5-.53998-1.44-.54001-.78-.72-2.22-.42001-1.26001.30002-1.97998.95999-.72,1.26001-1.20001,1.67999-.89999,1.32001-2.39999,1.32001c-6.55103,3.51898-4.42102.36697-10.68002-.30002h-2.39999l-2.04001.95999-3.17999,1.38-1.91998.72-3.48001.36002-3.06.17999-3.36002.48001-6.47998-.12003-2.76001-.12-2.82001.24002-2.04001.59998-2.15997.90002-1.86002.95999-1.19998,1.32001-1.98001.95999-1.98001.66-1.13998.66-1.38.72-1.5.59998-3.36002,1.20001-.95999,1.01999-2.16,1.14001-2.22,1.32001-.95999.53998-1.14001,1.14001-1.31998.66-2.34,2.10001-1.32001.78-.89999,1.01999-.36002.95999-.84,1.44-.54001.78-.47998,1.02002-.54001.84-.84.66-.36002.84-.72.84-1.25998.41998-.84.18002-2.04001.17999-.72-.06-.84-.78-1.08002-1.56-.35999-.84-.84-.72-1.20001-.18002-1.91998.96002-1.02002,1.07999-.66,1.32001-.95999,1.07999-1.01999,1.14001-1.02002.78-1.56.48001-1.85999-.60001-.54001-.66-1.20001-.66-1.97998.42001-.78.84-.78.06-2.58002.41998-1.13998.30002-.84.84-2.82001,2.88-.48001,1.19998-.66,1.44-.59998,1.98001-.66,1.19998c-1.46802,2.39102-3.526,4.25201-6.48001,4.38l-.95999.60001-1.98001.78-1.20001.84-1.25998.89999c-2.319,1.966-4.09601,2.91901-6.66,4.32001h-3.78l-1.14001-.12-3.59998.17999-.48001.42001-.89999.47998-.66-.17999-1.20001-.84-.95999-.72-.78-.66-1.38.06-.60001.18002c-2.28699.54599-3.94299,2.172-6.47998,1.13998l-1.5-.41998-.66-.30002-1.14001-.72-.60001-.54001-.29999-.47998-1.01999-.24002-.54001-.29999-.36002-.48001-.29999-.53998-.12-.36002-.60001-.06v.48001c.40601,1.39899,1.48502,2.06699,2.70001,2.69998l.29999.30002-.23999.29999-.66-.17999-.48001-.17999-1.56-.84-.78-.84003-.29999-.41998-.06-1.26001.29999-1.19998-.06-.66-.17999-.48001-.36002-1.01999-.47998-1.08002-.12003-.59998-.23999-.36002-.06-.35999h-.17999l-.36002-.30002-.59998.23999Z"/></g></svg>