<?xml version="1.0" encoding="UTF-8"?>
<svg id="DARK" xmlns="http://www.w3.org/2000/svg" viewBox="0 0 1252 649">
  <defs>
    <style>
      .cls-1 {
        fill: #fff;
      }

      .cls-2 {
        fill: #d5ddec;
      }

      .cls-3 {
        fill: #3c558d;
      }

      .cls-4 {
        fill: #7d99c7;
      }
    </style>
  </defs>
  <g id="Horizontal_copia">
    <g id="Logo-S_copia_2">
      <circle class="cls-1" cx="403" cy="265" r="181" />
      <polygon class="cls-3" points="335 177 261 268.20795 306.24771 261.50459 335 177" />
      <polygon class="cls-4" points="261 268.20795 306.24771 261.50459 329.70948 352 261 268.20795" />
      <polygon class="cls-2" points="306.24771 261.50459 335 177 317.15062 303.55868 306.24771 261.50459" />
      <polygon class="cls-3" points="317.14067 303.40061 412.66361 274.07339 329.70948 352 317.14067 303.40061" />
      <polygon class="cls-2" points="412.66361 274.07339 329.70948 352 389.20183 326.02446 412.66361 274.07339" />
      <polygon class="cls-3" points="397.58104 263.18043 465.4526 178.55046 414.33945 208.7156 397.58104 263.18043" />
      <polygon class="cls-3" points="465.4526 178.55046 535 258.15291 493.9419 268.20795 465.4526 178.55046" />
      <polygon class="cls-2" points="493.9419 268.20795 477 352 535 258.15291 493.9419 268.20795" />
      <polygon class="cls-4" points="493.9419 268.20795 477 352 480.4647 225.79444 493.9419 268.20795" />
      <polygon class="cls-4"
        points="424.45918 229.66571 397.58104 263.18043 380.84462 283.84238 412.66361 274.07339 424.45918 229.66571" />
      <polygon class="cls-2"
        points="480.53517 225.47401 465.4526 178.55046 424.3945 229.66361 418.33328 252.72836 480.53517 225.47401" />
    </g>
  </g>
</svg>